# xmcd
#
# Track frame offsets: 
#        150
#        19124
#        36290
#        53325
#        72472
#        86964
#        101222
#        121300
#        142334
#        156745
#        174381
#        194551
#
# Disc length: 2778 seconds
#
# Revision: 0
# Processed by: cddbd v1.5.2PL0 Copyright (c) Steve Scherf et al.
# Submitted via: ExactAudioCopy v1.3
#
DISCID=b60ad80c
DTITLE=Imany - Shape of a broken heart
DYEAR=2011
DGENRE=Soul
TTITLE0=Slow down
TTITLE1=You will never know
TTITLE2=Kisses in the dark
TTITLE3=Where have you been
TTITLE4=Grey monday
TTITLE5=Please and change
TTITLE6=Seat with me
TTITLE7=Shape of a broken heart
TTITLE8=Pray for help
TTITLE9=I've gotta go
TTITLE10=I lost my keys
TTITLE11=Take care
EXTD=
EXTT0=
EXTT1=
EXTT2=
EXTT3=
EXTT4=
EXTT5=
EXTT6=
EXTT7=
EXTT8=
EXTT9=
EXTT10=
EXTT11=
PLAYORDER=
